<svg xmlns="http://www.w3.org/2000/svg" class="injected-svg" data-src="https://preview.pixlr.com/images/svg/100/1/77b45872c1405506a07b53357fc78e6774e8209d078e77030be198b552446aff.svg" xmlns:xlink="http://www.w3.org/1999/xlink" id="svg-edited-version" viewBox="0 0 793.707 793.707">
    <path d="M541.9 189.541v15.507h-15.693v-15.507H541.9" fill="#f89a2c" originalFill="#f89a2c"/>
    <path d="M541.9 173.848v15.693h-15.693v-15.693H541.9" fill="#fccc29" originalFill="#fccc29"/>
    <path d="M526.207 469.555v15.694H510.7v-15.694h15.507m0-15.507v15.507H510.7v-15.507h15.507" fill="#f14624" originalFill="#f14624"/>
    <path d="M526.207 298.448v15.493H510.7v-15.493h15.507" fill="#f9a988" originalFill="#f9a988"/>
    <path d="M526.207 282.941v15.507H510.7v-15.507h15.507m0-15.691v15.691H510.7V267.25h15.507" fill="#fab790" originalFill="#fab790"/>
    <path d="M526.207 251.741v15.508H510.7v-15.508h15.507m0-15.491v15.491H510.7V236.25h15.507m0-15.709v15.708H510.7v-15.708h15.507" fill="#845333" originalFill="#845333"/>
    <path d="M526.207 205.048v15.493H510.7v-15.493h15.507" fill="#684027" originalFill="#684027"/>
    <path d="M526.207 189.541v15.507H510.7v-15.507h15.507" fill="#f89a2c" originalFill="#f89a2c"/>
    <path d="M526.207 173.848v15.693H510.7v-15.693h15.507" fill="#fccc29" originalFill="#fccc29"/>
    <path d="M526.207 158.343v15.505H510.7v-15.505h15.507" fill="#f89a2c" originalFill="#f89a2c"/>
    <path d="M510.7 547.448v15.493h-15.493v-15.493H510.7" fill="#f9a988" originalFill="#f9a988"/>
    <path d="M510.7 531.941v15.507h-15.493v-15.507H510.7" fill="#fab790" originalFill="#fab790"/>
    <path d="M510.7 485.25v15.491h-15.493V485.25H510.7m0-15.695v15.694h-15.493v-15.694H510.7m0-15.507v15.507h-15.493v-15.507H510.7m0-15.507v15.507h-15.493v-15.507H510.7m0-15.693v15.693h-15.493v-15.693H510.7" fill="#f14624" originalFill="#f14624"/>
    <path d="M510.7 313.941v15.707h-15.493v-15.707H510.7m0-15.493v15.493h-15.493v-15.493H510.7" fill="#f89b77" originalFill="#f89b77"/>
    <path d="M510.7 282.941v15.507h-15.493v-15.507H510.7" fill="#fab790" originalFill="#fab790"/>
    <path d="M510.7 267.25v15.691h-15.493V267.25H510.7m0-15.509v15.508h-15.493v-15.508H510.7m0-15.491v15.491h-15.493V236.25H510.7m0-15.709v15.708h-15.493v-15.708H510.7" fill="#845333" originalFill="#845333"/>
    <path d="M510.7 205.048v15.493h-15.493v-15.493H510.7" fill="#684027" originalFill="#684027"/>
    <path d="M510.7 189.541v15.507h-15.493v-15.507H510.7" fill="#f89a2c" originalFill="#f89a2c"/>
    <path d="M510.7 173.848v15.693h-15.493v-15.693H510.7" fill="#fccc29" originalFill="#fccc29"/>
    <path d="M510.7 158.343v15.505h-15.493v-15.505H510.7" fill="#f89a2c" originalFill="#f89a2c"/>
    <path d="M510.7 142.848v15.495h-15.493v-15.495H510.7m0-15.507v15.507h-15.493v-15.507H510.7" fill="#fab22a" originalFill="#fab22a"/>
    <path d="M495.207 687.541v15.507h-15.694V687.54h15.694" fill="#353132" originalFill="#353132"/>
    <path d="M495.207 671.848v15.693h-15.694v-15.693h15.694" fill="#393536" originalFill="#393536"/>
    <path d="M495.207 547.448v15.493h-15.694v-15.493h15.694" fill="#f9a988" originalFill="#f9a988"/>
    <path d="M495.207 531.941v15.507h-15.694v-15.507h15.694" fill="#fab790" originalFill="#fab790"/>
    <path d="M495.207 516.25v15.691h-15.694V516.25h15.694" fill="#c7391d" originalFill="#c7391d"/>
    <path d="M495.207 500.741v15.508h-15.694v-15.508h15.694m0-15.491v15.491h-15.694V485.25h15.694" fill="#f14624" originalFill="#f14624"/>
    <path d="M495.207 469.555v15.694h-15.694v-15.694h15.694m0-15.507v15.507h-15.694v-15.507h15.694" fill="#cd3b1e" originalFill="#cd3b1e"/>
    <path d="M495.207 438.541v15.507h-15.694v-15.507h15.694m0-15.693v15.693h-15.694v-15.693h15.694m0-15.505v15.505h-15.694v-15.505h15.694" fill="#f14624" originalFill="#f14624"/>
    <path d="M495.207 329.648v15.493h-15.694v-15.493h15.694" fill="#f89b77" originalFill="#f89b77"/>
    <path d="M495.207 313.941v15.707h-15.694v-15.707h15.694" fill="#f9a988" originalFill="#f9a988"/>
    <path d="M495.207 298.448v15.493h-15.694v-15.493h15.694m0-15.507v15.507h-15.694v-15.507h15.694m0-15.691v15.691h-15.694V267.25h15.694" fill="#fab790" originalFill="#fab790"/>
    <path d="M495.207 251.741v15.508h-15.694v-15.508h15.694" fill="#f9a988" originalFill="#f9a988"/>
    <path d="M495.207 236.25v15.491h-15.694V236.25h15.694" fill="#74482c" originalFill="#74482c"/>
    <path d="M495.207 220.541v15.708h-15.694v-15.708h15.694" fill="#845333" originalFill="#845333"/>
    <path d="M495.207 205.048v15.493h-15.694v-15.493h15.694" fill="#684027" originalFill="#684027"/>
    <path d="M495.207 189.541v15.507h-15.694v-15.507h15.694" fill="#f89a2c" originalFill="#f89a2c"/>
    <path d="M495.207 173.848v15.693h-15.694v-15.693h15.694" fill="#fccc29" originalFill="#fccc29"/>
    <path d="M495.207 158.343v15.505h-15.694v-15.505h15.694" fill="#f89a2c" originalFill="#f89a2c"/>
    <path d="M495.207 142.848v15.495h-15.694v-15.495h15.694m0-15.507v15.507h-15.694v-15.507h15.694M495.207 111.648v15.693h-15.694v-15.693h15.694m0-15.508v15.508h-15.694V96.14h15.694" fill="#fab22a" originalFill="#fab22a"/>
    <path d="M479.513 687.541v15.507h-15.506V687.54h15.506" fill="#353132" originalFill="#353132"/>
    <path d="M479.513 671.848v15.693h-15.506v-15.693h15.506m0-15.505v15.505h-15.506v-15.505h15.506" fill="#393536" originalFill="#393536"/>
    <path d="M479.513 562.941v15.707h-15.506v-15.707h15.506m0-15.493v15.493h-15.506v-15.493h15.506m0-15.507v15.507h-15.506v-15.507h15.506" fill="#f6866a" originalFill="#f6866a"/>
    <path d="M479.513 516.25v15.691h-15.506V516.25h15.506" fill="#c7391d" originalFill="#c7391d"/>
    <path d="M479.513 500.741v15.508h-15.506v-15.508h15.506" fill="#f14624" originalFill="#f14624"/>
    <path d="M479.513 485.25v15.491h-15.506V485.25h15.506m0-46.709v15.507h-15.506v-15.507h15.506" fill="#cd3b1e" originalFill="#cd3b1e"/>
    <path d="M479.513 422.848v15.693h-15.506v-15.693h15.506m0-15.505v15.505h-15.506v-15.505h15.506m0-15.495v15.495h-15.506v-15.495h15.506" fill="#f14624" originalFill="#f14624"/>
    <path d="M479.513 345.141v15.507h-15.506v-15.507h15.506" fill="#f89b77" originalFill="#f89b77"/>
    <path d="M479.513 329.648v15.493h-15.506v-15.493h15.506" fill="#f9a988" originalFill="#f9a988"/>
    <path d="M479.513 313.941v15.707h-15.506v-15.707h15.506m0-15.493v15.493h-15.506v-15.493h15.506m0-15.507v15.507h-15.506v-15.507h15.506m0-15.691v15.691h-15.506V267.25h15.506" fill="#fab790" originalFill="#fab790"/>
    <path d="M479.513 251.741v15.508h-15.506v-15.508h15.506" fill="#f9a988" originalFill="#f9a988"/>
    <path d="M479.513 236.25v15.491h-15.506V236.25h15.506" fill="#74482c" originalFill="#74482c"/>
    <path d="M479.513 220.541v15.708h-15.506v-15.708h15.506" fill="#845333" originalFill="#845333"/>
    <path d="M479.513 205.048v15.493h-15.506v-15.493h15.506" fill="#684027" originalFill="#684027"/>
    <path d="M479.513 189.541v15.507h-15.506v-15.507h15.506" fill="#f89a2c" originalFill="#f89a2c"/>
    <path d="M479.513 173.848v15.693h-15.506v-15.693h15.506" fill="#fccc29" originalFill="#fccc29"/>
    <path d="M479.513 158.343v15.505h-15.506v-15.505h15.506" fill="#f89a2c" originalFill="#f89a2c"/>
    <path d="M479.513 142.848v15.495h-15.506v-15.495h15.506m0-15.507v15.507h-15.506v-15.507h15.506M479.513 111.648v15.693h-15.506v-15.693h15.506m0-15.508v15.508h-15.506V96.14h15.506" fill="#fab22a" originalFill="#fab22a"/>
    <path d="M464.007 687.541v15.507H448.5V687.54h15.507" fill="#353132" originalFill="#353132"/>
    <path d="M464.007 671.848v15.693H448.5v-15.693h15.507m0-15.505v15.505H448.5v-15.505h15.507m0-15.495v15.495H448.5v-15.495h15.507" fill="#393536" originalFill="#393536"/>
    <path d="M464.007 625.343v15.505H448.5v-15.505h15.507" fill="#f14624" originalFill="#f14624"/>
    <path d="M464.007 609.648v15.695H448.5v-15.695h15.507m0-15.507v15.507H448.5v-15.507h15.507M464.007 578.648v15.493H448.5v-15.493h15.507m0-15.707v15.707H448.5v-15.707h15.507m0-15.493v15.493H448.5v-15.493h15.507m0-15.507v15.507H448.5v-15.507h15.507" fill="#f14624" originalFill="#f14624"/>
    <path d="M464.007 516.25v15.691H448.5V516.25h15.507" fill="#352923" originalFill="#352923"/>
    <path d="M464.007 500.741v15.508H448.5v-15.508h15.507" fill="#fab42a" originalFill="#fab42a"/>
    <path d="M464.007 485.25v15.491H448.5V485.25h15.507" fill="#fab22a" originalFill="#fab22a"/>
    <path d="M464.007 469.555v15.694H448.5v-15.694h15.507" fill="#e9d50a" originalFill="#e9d50a"/>
    <path d="M464.007 454.048v15.507H448.5v-15.507h15.507m0-15.507v15.507H448.5v-15.507h15.507m0-15.693v15.693H448.5v-15.693h15.507m0-15.505v15.505H448.5v-15.505h15.507m0-15.495v15.495H448.5v-15.495h15.507" fill="#fab22a" originalFill="#fab22a"/>
    <path d="M464.007 360.648v15.695H448.5v-15.695h15.507" fill="#f89b77" originalFill="#f89b77"/>
    <path d="M464.007 345.141v15.507H448.5v-15.507h15.507" fill="#f9a988" originalFill="#f9a988"/>
    <path d="M464.007 329.648v15.493H448.5v-15.493h15.507m0-15.707v15.707H448.5v-15.707h15.507m0-15.493v15.493H448.5v-15.493h15.507" fill="#fab790" originalFill="#fab790"/>
    <path d="M464.007 282.941v15.507H448.5v-15.507h15.507" fill="#fff" originalFill="#fff"/>
    <path d="M464.007 267.25v15.691H448.5V267.25h15.507" fill="#3e1817" originalFill="#3e1817"/>
    <path d="M464.007 251.741v15.508H448.5v-15.508h15.507m0-15.491v15.491H448.5V236.25h15.507" fill="#fab790" originalFill="#fab790"/>
    <path d="M464.007 220.541v15.708H448.5v-15.708h15.507" fill="#74482c" originalFill="#74482c"/>
    <path d="M464.007 205.048v15.493H448.5v-15.493h15.507" fill="#684027" originalFill="#684027"/>
    <path d="M464.007 189.541v15.507H448.5v-15.507h15.507" fill="#f89a2c" originalFill="#f89a2c"/>
    <path d="M464.007 173.848v15.693H448.5v-15.693h15.507" fill="#fccc29" originalFill="#fccc29"/>
    <path d="M464.007 158.343v15.505H448.5v-15.505h15.507" fill="#f89a2c" originalFill="#f89a2c"/>
    <path d="M464.007 142.848v15.495H448.5v-15.495h15.507m0-15.507v15.507H448.5v-15.507h15.507M464.007 111.648v15.693H448.5v-15.693h15.507" fill="#fab22a" originalFill="#fab22a"/>
    <path d="M464.007 96.14v15.508H448.5V96.14h15.507" fill="#fccc29" originalFill="#fccc29"/>
    <path d="M464.007 80.648V96.14H448.5V80.648h15.507" fill="#fab22a" originalFill="#fab22a"/>
    <path d="M464.007 64.941v15.707H448.5V64.941h15.507" fill="#fccc29" originalFill="#fccc29"/>
    <path d="M448.5 687.541v15.507h-15.693V687.54H448.5" fill="#353132" originalFill="#353132"/>
    <path d="M448.5 671.848v15.693h-15.693v-15.693H448.5m0-15.505v15.505h-15.693v-15.505H448.5m0-15.495v15.495h-15.693v-15.495H448.5" fill="#393536" originalFill="#393536"/>
    <path d="M448.5 625.343v15.505h-15.693v-15.505H448.5" fill="#f14624" originalFill="#f14624"/>
    <path d="M448.5 609.648v15.695h-15.693v-15.695H448.5m0-15.507v15.507h-15.693v-15.507H448.5M448.5 578.648v15.493h-15.693v-15.493H448.5m0-15.707v15.707h-15.693v-15.707H448.5m0-15.493v15.493h-15.693v-15.493H448.5m0-15.507v15.507h-15.693v-15.507H448.5" fill="#f14624" originalFill="#f14624"/>
    <path d="M448.5 516.25v15.691h-15.693V516.25H448.5" fill="#352923" originalFill="#352923"/>
    <path d="M448.5 500.741v15.508h-15.693v-15.508H448.5m0-15.491v15.491h-15.693V485.25H448.5" fill="#f68712" originalFill="#f68712"/>
    <path d="M448.5 469.555v15.694h-15.693v-15.694H448.5" fill="#e9d50a" originalFill="#e9d50a"/>
    <path d="M448.5 454.048v15.507h-15.693v-15.507H448.5m0-15.507v15.507h-15.693v-15.507H448.5m0-15.693v15.693h-15.693v-15.693H448.5m0-15.505v15.505h-15.693v-15.505H448.5" fill="#fab22a" originalFill="#fab22a"/>
    <path d="M448.5 391.848v15.495h-15.693v-15.495H448.5" fill="#f14624" originalFill="#f14624"/>
    <path d="M448.5 376.343v15.505h-15.693v-15.505H448.5" fill="#f89b77" originalFill="#f89b77"/>
    <path d="M448.5 360.648v15.695h-15.693v-15.695H448.5" fill="#f9a988" originalFill="#f9a988"/>
    <path d="M448.5 345.141v15.507h-15.693v-15.507H448.5m0-15.493v15.493h-15.693v-15.493H448.5m0-15.707v15.707h-15.693v-15.707H448.5m0-15.493v15.493h-15.693v-15.493H448.5" fill="#fab790" originalFill="#fab790"/>
    <path d="M448.5 282.941v15.507h-15.693v-15.507H448.5m0-15.691v15.691h-15.693V267.25H448.5" fill="#3e1817" originalFill="#3e1817"/>
    <path d="M448.5 251.741v15.508h-15.693v-15.508H448.5m0-15.491v15.491h-15.693V236.25H448.5" fill="#fab790" originalFill="#fab790"/>
    <path d="M448.5 220.541v15.708h-15.693v-15.708H448.5" fill="#74482c" originalFill="#74482c"/>
    <path d="M448.5 205.048v15.493h-15.693v-15.493H448.5" fill="#684027" originalFill="#684027"/>
    <path d="M448.5 189.541v15.507h-15.693v-15.507H448.5" fill="#f89a2c" originalFill="#f89a2c"/>
    <path d="M448.5 173.848v15.693h-15.693v-15.693H448.5" fill="#fccc29" originalFill="#fccc29"/>
    <path d="M448.5 158.343v15.505h-15.693v-15.505H448.5" fill="#f89a2c" originalFill="#f89a2c"/>
    <path d="M448.5 142.848v15.495h-15.693v-15.495H448.5m0-15.507v15.507h-15.693v-15.507H448.5M448.5 111.648v15.693h-15.693v-15.693H448.5m0-15.508v15.508h-15.693V96.14H448.5m0-15.492V96.14h-15.693V80.648H448.5" fill="#fab22a" originalFill="#fab22a"/>
    <path d="M448.5 64.941v15.707h-15.693V64.941H448.5" fill="#fccc29" originalFill="#fccc29"/>
    <path d="M432.807 578.648v15.493H417.3v-15.493h15.506" fill="#cd3b1e" originalFill="#cd3b1e"/>
    <path d="M432.807 562.941v15.707H417.3v-15.707h15.506m.001-15.493v15.493H417.3v-15.493h15.506m.001-15.507v15.507H417.3v-15.507h15.506" fill="#f14624" originalFill="#f14624"/>
    <path d="M432.807 516.25v15.691H417.3V516.25h15.506" fill="#352923" originalFill="#352923"/>
    <path d="M432.807 500.741v15.508H417.3v-15.508h15.506m.001-15.491v15.491H417.3V485.25h15.506" fill="#f68712" originalFill="#f68712"/>
    <path d="M432.807 469.555v15.694H417.3v-15.694h15.506" fill="#e9d50a" originalFill="#e9d50a"/>
    <path d="M432.807 454.048v15.507H417.3v-15.507h15.506" fill="#fab22a" originalFill="#fab22a"/>
    <path d="M432.807 438.541v15.507H417.3v-15.507h15.506m.001-15.693v15.693H417.3v-15.693h15.506m.001-15.505v15.505H417.3v-15.505h15.506" fill="#f14624" originalFill="#f14624"/>
    <path d="M432.807 391.848v15.495H417.3v-15.495h15.506" fill="#f6866a" originalFill="#f6866a"/>
    <path d="M432.807 376.343v15.505H417.3v-15.505h15.506" fill="#f9a988" originalFill="#f9a988"/>
    <path d="M432.807 360.648v15.695H417.3v-15.695h15.506" fill="#fab790" originalFill="#fab790"/>
    <path d="M432.807 345.141v15.507H417.3v-15.507h15.506" fill="#f46b59" originalFill="#f46b59"/>
    <path d="M432.807 329.648v15.493H417.3v-15.493h15.506" fill="#fab790" originalFill="#fab790"/>
    <path d="M432.807 313.941v15.707H417.3v-15.707h15.506" fill="#f57e76" originalFill="#f57e76"/>
    <path d="M432.807 298.448v15.493H417.3v-15.493h15.506" fill="#f79888" originalFill="#f79888"/>
    <path d="M432.807 282.941v15.507H417.3v-15.507h15.506m.001-15.691v15.691H417.3V267.25h15.506m.001-15.509v15.508H417.3v-15.508h15.506m.001-15.491v15.491H417.3V236.25h15.506" fill="#fab790" originalFill="#fab790"/>
    <path d="M432.807 220.541v15.708H417.3v-15.708h15.506" fill="#74482c" originalFill="#74482c"/>
    <path d="M432.807 205.048v15.493H417.3v-15.493h15.506" fill="#684027" originalFill="#684027"/>
    <path d="M432.807 189.541v15.507H417.3v-15.507h15.506" fill="#f89a2c" originalFill="#f89a2c"/>
    <path d="M432.807 173.848v15.693H417.3v-15.693h15.506" fill="#fccc29" originalFill="#fccc29"/>
    <path d="M432.807 158.343v15.505H417.3v-15.505h15.506" fill="#f89a2c" originalFill="#f89a2c"/>
    <path d="M432.807 142.848v15.495H417.3v-15.495h15.506m.001-15.507v15.507H417.3v-15.507h15.506M432.807 111.648v15.693H417.3v-15.693h15.506m.001-15.508v15.508H417.3V96.14h15.506m.001-15.492V96.14H417.3V80.648h15.506" fill="#fab22a" originalFill="#fab22a"/>
    <path d="M432.807 64.941v15.707H417.3V64.941h15.506" fill="#fccc29" originalFill="#fccc29"/>
    <path d="M417.301 562.941v15.707h-15.494v-15.707H417.3" fill="#cd3b1e" originalFill="#cd3b1e"/>
    <path d="M417.301 547.448v15.493h-15.494v-15.493H417.3m.001-15.507v15.507h-15.494v-15.507H417.3" fill="#f14624" originalFill="#f14624"/>
    <path d="M417.301 516.25v15.691h-15.494V516.25H417.3" fill="#7b7979" originalFill="#7b7979"/>
    <path d="M417.301 500.741v15.508h-15.494v-15.508H417.3" fill="#fab42a" originalFill="#fab42a"/>
    <path d="M417.301 485.25v15.491h-15.494V485.25H417.3" fill="#fab22a" originalFill="#fab22a"/>
    <path d="M417.301 469.555v15.694h-15.494v-15.694H417.3" fill="#e9d50a" originalFill="#e9d50a"/>
    <path d="M417.301 454.048v15.507h-15.494v-15.507H417.3" fill="#fab22a" originalFill="#fab22a"/>
    <path d="M417.301 438.541v15.507h-15.494v-15.507H417.3m.001-15.693v15.693h-15.494v-15.693H417.3m.001-15.505v15.505h-15.494v-15.505H417.3" fill="#f14624" originalFill="#f14624"/>
    <path d="M417.301 391.848v15.495h-15.494v-15.495H417.3" fill="#f6866a" originalFill="#f6866a"/>
    <path d="M417.301 376.343v15.505h-15.494v-15.505H417.3" fill="#f9a988" originalFill="#f9a988"/>
    <path d="M417.301 360.648v15.695h-15.494v-15.695H417.3" fill="#fab790" originalFill="#fab790"/>
    <path d="M417.301 345.141v15.507h-15.494v-15.507H417.3" fill="#f46b59" originalFill="#f46b59"/>
    <path d="M417.301 329.648v15.493h-15.494v-15.493H417.3" fill="#fab790" originalFill="#fab790"/>
    <path d="M417.301 313.941v15.707h-15.494v-15.707H417.3" fill="#f57e76" originalFill="#f57e76"/>
    <path d="M417.301 298.448v15.493h-15.494v-15.493H417.3" fill="#f79888" originalFill="#f79888"/>
    <path d="M417.301 282.941v15.507h-15.494v-15.507H417.3m.001-15.691v15.691h-15.494V267.25H417.3m.001-15.509v15.508h-15.494v-15.508H417.3" fill="#fab790" originalFill="#fab790"/>
    <path d="M417.301 236.25v15.491h-15.494V236.25H417.3" fill="#f9a988" originalFill="#f9a988"/>
    <path d="M417.301 220.541v15.708h-15.494v-15.708H417.3" fill="#74482c" originalFill="#74482c"/>
    <path d="M417.301 205.048v15.493h-15.494v-15.493H417.3" fill="#684027" originalFill="#684027"/>
    <path d="M417.301 189.541v15.507h-15.494v-15.507H417.3" fill="#f89a2c" originalFill="#f89a2c"/>
    <path d="M417.301 173.848v15.693h-15.494v-15.693H417.3" fill="#fccc29" originalFill="#fccc29"/>
    <path d="M417.301 158.343v15.505h-15.494v-15.505H417.3" fill="#f89a2c" originalFill="#f89a2c"/>
    <path d="M417.301 142.848v15.495h-15.494v-15.495H417.3m.001-15.507v15.507h-15.494v-15.507H417.3M417.301 111.648v15.693h-15.494v-15.693H417.3m.001-15.508v15.508h-15.494V96.14H417.3m.001-15.492V96.14h-15.494V80.648H417.3" fill="#fab22a" originalFill="#fab22a"/>
    <path d="M417.301 64.941v15.707h-15.494V64.941H417.3" fill="#fccc29" originalFill="#fccc29"/>
    <path d="M401.807 547.448v15.493H386.3v-15.493h15.506" fill="#cd3b1e" originalFill="#cd3b1e"/>
    <path d="M401.807 531.941v15.507H386.3v-15.507h15.506" fill="#f14624" originalFill="#f14624"/>
    <path d="M401.807 516.25v15.691H386.3V516.25h15.506" fill="#7b7979" originalFill="#7b7979"/>
    <path d="M401.807 500.741v15.508H386.3v-15.508h15.506m.001-15.491v15.491H386.3V485.25h15.506m.001-15.695v15.694H386.3v-15.694h15.506m.001-15.507v15.507H386.3v-15.507h15.506m.001-15.507v15.507H386.3v-15.507h15.506m.001-15.693v15.693H386.3v-15.693h15.506m.001-15.505v15.505H386.3v-15.505h15.506" fill="#f14624" originalFill="#f14624"/>
    <path d="M401.807 391.848v15.495H386.3v-15.495h15.506" fill="#f6866a" originalFill="#f6866a"/>
    <path d="M401.807 376.343v15.505H386.3v-15.505h15.506" fill="#f9a988" originalFill="#f9a988"/>
    <path d="M401.807 360.648v15.695H386.3v-15.695h15.506" fill="#fab790" originalFill="#fab790"/>
    <path d="M401.807 345.141v15.507H386.3v-15.507h15.506" fill="#f46b59" originalFill="#f46b59"/>
    <path d="M401.807 329.648v15.493H386.3v-15.493h15.506" fill="#fab790" originalFill="#fab790"/>
    <path d="M401.807 313.941v15.707H386.3v-15.707h15.506" fill="#f57e76" originalFill="#f57e76"/>
    <path d="M401.807 298.448v15.493H386.3v-15.493h15.506" fill="#f79888" originalFill="#f79888"/>
    <path d="M401.807 282.941v15.507H386.3v-15.507h15.506m.001-15.691v15.691H386.3V267.25h15.506" fill="#fab790" originalFill="#fab790"/>
    <path d="M401.807 251.741v15.508H386.3v-15.508h15.506" fill="#f9a988" originalFill="#f9a988"/>
    <path d="M401.807 236.25v15.491H386.3V236.25h15.506" fill="#74482c" originalFill="#74482c"/>
    <path d="M401.807 220.541v15.708H386.3v-15.708h15.506" fill="#845333" originalFill="#845333"/>
    <path d="M401.807 205.048v15.493H386.3v-15.493h15.506" fill="#684027" originalFill="#684027"/>
    <path d="M401.807 189.541v15.507H386.3v-15.507h15.506" fill="#f89a2c" originalFill="#f89a2c"/>
    <path d="M401.807 173.848v15.693H386.3v-15.693h15.506" fill="#fccc29" originalFill="#fccc29"/>
    <path d="M401.807 158.343v15.505H386.3v-15.505h15.506" fill="#f89a2c" originalFill="#f89a2c"/>
    <path d="M401.807 142.848v15.495H386.3v-15.495h15.506m.001-15.507v15.507H386.3v-15.507h15.506M401.807 111.648v15.693H386.3v-15.693h15.506m.001-15.508v15.508H386.3V96.14h15.506m.001-15.492V96.14H386.3V80.648h15.506" fill="#fab22a" originalFill="#fab22a"/>
    <path d="M401.807 64.941v15.707H386.3V64.941h15.506" fill="#fccc29" originalFill="#fccc29"/>
    <path d="M386.301 562.941v15.707h-15.693v-15.707h15.693" fill="#cd3b1e" originalFill="#cd3b1e"/>
    <path d="M386.301 547.448v15.493h-15.693v-15.493h15.693m0-15.507v15.507h-15.693v-15.507h15.693" fill="#f14624" originalFill="#f14624"/>
    <path d="M386.301 516.25v15.691h-15.693V516.25h15.693" fill="#7b7979" originalFill="#7b7979"/>
    <path d="M386.301 500.741v15.508h-15.693v-15.508h15.693m0-15.491v15.491h-15.693V485.25h15.693" fill="#fab22a" originalFill="#fab22a"/>
    <path d="M386.301 469.555v15.694h-15.693v-15.694h15.693" fill="#e9d50a" originalFill="#e9d50a"/>
    <path d="M386.301 454.048v15.507h-15.693v-15.507h15.693" fill="#fab22a" originalFill="#fab22a"/>
    <path d="M386.301 438.541v15.507h-15.693v-15.507h15.693m0-15.693v15.693h-15.693v-15.693h15.693m0-15.505v15.505h-15.693v-15.505h15.693" fill="#f14624" originalFill="#f14624"/>
    <path d="M386.301 391.848v15.495h-15.693v-15.495h15.693" fill="#f6866a" originalFill="#f6866a"/>
    <path d="M386.301 376.343v15.505h-15.693v-15.505h15.693" fill="#f9a988" originalFill="#f9a988"/>
    <path d="M386.301 360.648v15.695h-15.693v-15.695h15.693m0-15.507v15.507h-15.693v-15.507h15.693m0-15.493v15.493h-15.693v-15.493h15.693" fill="#fab790" originalFill="#fab790"/>
    <path d="M386.301 313.941v15.707h-15.693v-15.707h15.693" fill="#f57e76" originalFill="#f57e76"/>
    <path d="M386.301 298.448v15.493h-15.693v-15.493h15.693" fill="#f79888" originalFill="#f79888"/>
    <path d="M386.301 282.941v15.507h-15.693v-15.507h15.693m0-15.691v15.691h-15.693V267.25h15.693" fill="#fab790" originalFill="#fab790"/>
    <path d="M386.301 251.741v15.508h-15.693v-15.508h15.693" fill="#f9a988" originalFill="#f9a988"/>
    <path d="M386.301 236.25v15.491h-15.693V236.25h15.693" fill="#74482c" originalFill="#74482c"/>
    <path d="M386.301 220.541v15.708h-15.693v-15.708h15.693" fill="#845333" originalFill="#845333"/>
    <path d="M386.301 205.048v15.493h-15.693v-15.493h15.693" fill="#684027" originalFill="#684027"/>
    <path d="M386.301 189.541v15.507h-15.693v-15.507h15.693" fill="#f89a2c" originalFill="#f89a2c"/>
    <path d="M386.301 173.848v15.693h-15.693v-15.693h15.693" fill="#fccc29" originalFill="#fccc29"/>
    <path d="M386.301 158.343v15.505h-15.693v-15.505h15.693" fill="#f89a2c" originalFill="#f89a2c"/>
    <path d="M386.301 142.848v15.495h-15.693v-15.495h15.693m0-15.507v15.507h-15.693v-15.507h15.693M386.301 111.648v15.693h-15.693v-15.693h15.693m0-15.508v15.508h-15.693V96.14h15.693m0-15.492V96.14h-15.693V80.648h15.693" fill="#fab22a" originalFill="#fab22a"/>
    <path d="M386.301 64.941v15.707h-15.693V64.941h15.693" fill="#fccc29" originalFill="#fccc29"/>
    <path d="M370.608 578.648v15.493H355.1v-15.493h15.508" fill="#cd3b1e" originalFill="#cd3b1e"/>
    <path d="M370.608 562.941v15.707H355.1v-15.707h15.508m0-15.493v15.493H355.1v-15.493h15.508m0-15.507v15.507H355.1v-15.507h15.508" fill="#f14624" originalFill="#f14624"/>
    <path d="M370.608 516.25v15.691H355.1V516.25h15.508" fill="#352923" originalFill="#352923"/>
    <path d="M370.608 500.741v15.508H355.1v-15.508h15.508m0-15.491v15.491H355.1V485.25h15.508" fill="#f68712" originalFill="#f68712"/>
    <path d="M370.608 469.555v15.694H355.1v-15.694h15.508" fill="#e9d50a" originalFill="#e9d50a"/>
    <path d="M370.608 454.048v15.507H355.1v-15.507h15.508" fill="#fab22a" originalFill="#fab22a"/>
    <path d="M370.608 438.541v15.507H355.1v-15.507h15.508m0-15.693v15.693H355.1v-15.693h15.508m0-15.505v15.505H355.1v-15.505h15.508" fill="#f14624" originalFill="#f14624"/>
    <path d="M370.608 391.848v15.495H355.1v-15.495h15.508" fill="#f6866a" originalFill="#f6866a"/>
    <path d="M370.608 376.343v15.505H355.1v-15.505h15.508" fill="#f9a988" originalFill="#f9a988"/>
    <path d="M370.608 360.648v15.695H355.1v-15.695h15.508m0-15.507v15.507H355.1v-15.507h15.508m0-15.493v15.493H355.1v-15.493h15.508m0-15.707v15.707H355.1v-15.707h15.508m0-15.493v15.493H355.1v-15.493h15.508" fill="#fab790" originalFill="#fab790"/>
    <path d="M370.608 282.941v15.507H355.1v-15.507h15.508" fill="#fff" originalFill="#fff"/>
    <path d="M370.608 267.25v15.691H355.1V267.25h15.508" fill="#3e1817" originalFill="#3e1817"/>
    <path d="M370.608 251.741v15.508H355.1v-15.508h15.508" fill="#f9a988" originalFill="#f9a988"/>
    <path d="M370.608 236.25v15.491H355.1V236.25h15.508" fill="#74482c" originalFill="#74482c"/>
    <path d="M370.608 220.541v15.708H355.1v-15.708h15.508" fill="#845333" originalFill="#845333"/>
    <path d="M370.608 205.048v15.493H355.1v-15.493h15.508" fill="#684027" originalFill="#684027"/>
    <path d="M370.608 189.541v15.507H355.1v-15.507h15.508" fill="#f89a2c" originalFill="#f89a2c"/>
    <path d="M370.608 173.848v15.693H355.1v-15.693h15.508" fill="#fccc29" originalFill="#fccc29"/>
    <path d="M370.608 158.343v15.505H355.1v-15.505h15.508" fill="#f89a2c" originalFill="#f89a2c"/>
    <path d="M370.608 142.848v15.495H355.1v-15.495h15.508m0-15.507v15.507H355.1v-15.507h15.508M370.608 111.648v15.693H355.1v-15.693h15.508m0-15.508v15.508H355.1V96.14h15.508m0-15.492V96.14H355.1V80.648h15.508" fill="#fab22a" originalFill="#fab22a"/>
    <path d="M370.608 64.941v15.707H355.1V64.941h15.508" fill="#fccc29" originalFill="#fccc29"/>
    <path d="M355.1 687.541v15.507h-15.492V687.54H355.1" fill="#353132" originalFill="#353132"/>
    <path d="M355.1 671.848v15.693h-15.492v-15.693H355.1m0-15.505v15.505h-15.492v-15.505H355.1" fill="#393536" originalFill="#393536"/>
    <path d="M355.1 640.848v15.495h-15.492v-15.495H355.1" fill="#351f17" originalFill="#351f17"/>
    <path d="M355.1 625.343v15.505h-15.492v-15.505H355.1" fill="#f14624" originalFill="#f14624"/>
    <path d="M355.1 609.648v15.695h-15.492v-15.695H355.1m0-15.507v15.507h-15.492v-15.507H355.1M355.1 578.648v15.493h-15.492v-15.493H355.1m0-15.707v15.707h-15.492v-15.707H355.1m0-15.493v15.493h-15.492v-15.493H355.1m0-15.507v15.507h-15.492v-15.507H355.1" fill="#f14624" originalFill="#f14624"/>
    <path d="M355.1 516.25v15.691h-15.492V516.25H355.1" fill="#352923" originalFill="#352923"/>
    <path d="M355.1 500.741v15.508h-15.492v-15.508H355.1m0-15.491v15.491h-15.492V485.25H355.1" fill="#f68712" originalFill="#f68712"/>
    <path d="M355.1 469.555v15.694h-15.492v-15.694H355.1" fill="#e9d50a" originalFill="#e9d50a"/>
    <path d="M355.1 454.048v15.507h-15.492v-15.507H355.1m0-15.507v15.507h-15.492v-15.507H355.1m0-15.693v15.693h-15.492v-15.693H355.1m0-15.505v15.505h-15.492v-15.505H355.1" fill="#fab22a" originalFill="#fab22a"/>
    <path d="M355.1 391.848v15.495h-15.492v-15.495H355.1" fill="#f14624" originalFill="#f14624"/>
    <path d="M355.1 376.343v15.505h-15.492v-15.505H355.1" fill="#f89b77" originalFill="#f89b77"/>
    <path d="M355.1 360.648v15.695h-15.492v-15.695H355.1" fill="#f9a988" originalFill="#f9a988"/>
    <path d="M355.1 345.141v15.507h-15.492v-15.507H355.1m0-15.493v15.493h-15.492v-15.493H355.1m0-15.707v15.707h-15.492v-15.707H355.1m0-15.493v15.493h-15.492v-15.493H355.1" fill="#fab790" originalFill="#fab790"/>
    <path d="M355.1 282.941v15.507h-15.492v-15.507H355.1m0-15.691v15.691h-15.492V267.25H355.1" fill="#3e1817" originalFill="#3e1817"/>
    <path d="M355.1 251.741v15.508h-15.492v-15.508H355.1" fill="#f9a988" originalFill="#f9a988"/>
    <path d="M355.1 236.25v15.491h-15.492V236.25H355.1" fill="#74482c" originalFill="#74482c"/>
    <path d="M355.1 220.541v15.708h-15.492v-15.708H355.1" fill="#845333" originalFill="#845333"/>
    <path d="M355.1 205.048v15.493h-15.492v-15.493H355.1" fill="#684027" originalFill="#684027"/>
    <path d="M355.1 189.541v15.507h-15.492v-15.507H355.1" fill="#f89a2c" originalFill="#f89a2c"/>
    <path d="M355.1 173.848v15.693h-15.492v-15.693H355.1" fill="#fccc29" originalFill="#fccc29"/>
    <path d="M355.1 158.343v15.505h-15.492v-15.505H355.1" fill="#f89a2c" originalFill="#f89a2c"/>
    <path d="M355.1 142.848v15.495h-15.492v-15.495H355.1m0-15.507v15.507h-15.492v-15.507H355.1M355.1 111.648v15.693h-15.492v-15.693H355.1m0-15.508v15.508h-15.492V96.14H355.1m0-15.492V96.14h-15.492V80.648H355.1" fill="#fab22a" originalFill="#fab22a"/>
    <path d="M355.1 64.941v15.707h-15.492V64.941H355.1" fill="#fccc29" originalFill="#fccc29"/>
    <path d="M339.608 687.541v15.507H323.9V687.54h15.708" fill="#353132" originalFill="#353132"/>
    <path d="M339.608 671.848v15.693H323.9v-15.693h15.708m0-15.505v15.505H323.9v-15.505h15.708" fill="#393536" originalFill="#393536"/>
    <path d="M339.608 640.848v15.495H323.9v-15.495h15.708" fill="#351f17" originalFill="#351f17"/>
    <path d="M339.608 625.343v15.505H323.9v-15.505h15.708" fill="#f14624" originalFill="#f14624"/>
    <path d="M339.608 609.648v15.695H323.9v-15.695h15.708m0-15.507v15.507H323.9v-15.507h15.708M339.608 578.648v15.493H323.9v-15.493h15.708m0-15.707v15.707H323.9v-15.707h15.708m0-15.493v15.493H323.9v-15.493h15.708m0-15.507v15.507H323.9v-15.507h15.708" fill="#f14624" originalFill="#f14624"/>
    <path d="M339.608 516.25v15.691H323.9V516.25h15.708" fill="#352923" originalFill="#352923"/>
    <path d="M339.608 500.741v15.508H323.9v-15.508h15.708m0-15.491v15.491H323.9V485.25h15.708" fill="#fab22a" originalFill="#fab22a"/>
    <path d="M339.608 469.555v15.694H323.9v-15.694h15.708" fill="#e9d50a" originalFill="#e9d50a"/>
    <path d="M339.608 454.048v15.507H323.9v-15.507h15.708m0-15.507v15.507H323.9v-15.507h15.708m0-15.693v15.693H323.9v-15.693h15.708m0-15.505v15.505H323.9v-15.505h15.708m0-15.495v15.495H323.9v-15.495h15.708" fill="#fab22a" originalFill="#fab22a"/>
    <path d="M339.608 360.648v15.695H323.9v-15.695h15.708" fill="#f89b77" originalFill="#f89b77"/>
    <path d="M339.608 345.141v15.507H323.9v-15.507h15.708" fill="#f9a988" originalFill="#f9a988"/>
    <path d="M339.608 329.648v15.493H323.9v-15.493h15.708m0-15.707v15.707H323.9v-15.707h15.708m0-15.493v15.493H323.9v-15.493h15.708m0-15.507v15.507H323.9v-15.507h15.708m0-15.691v15.691H323.9V267.25h15.708" fill="#fab790" originalFill="#fab790"/>
    <path d="M339.608 251.741v15.508H323.9v-15.508h15.708" fill="#f9a988" originalFill="#f9a988"/>
    <path d="M339.608 236.25v15.491H323.9V236.25h15.708" fill="#74482c" originalFill="#74482c"/>
    <path d="M339.608 220.541v15.708H323.9v-15.708h15.708" fill="#845333" originalFill="#845333"/>
    <path d="M339.608 205.048v15.493H323.9v-15.493h15.708" fill="#684027" originalFill="#684027"/>
    <path d="M339.608 189.541v15.507H323.9v-15.507h15.708" fill="#f89a2c" originalFill="#f89a2c"/>
    <path d="M339.608 173.848v15.693H323.9v-15.693h15.708" fill="#fccc29" originalFill="#fccc29"/>
    <path d="M339.608 158.343v15.505H323.9v-15.505h15.708" fill="#f89a2c" originalFill="#f89a2c"/>
    <path d="M339.608 142.848v15.495H323.9v-15.495h15.708m0-15.507v15.507H323.9v-15.507h15.708M339.608 111.648v15.693H323.9v-15.693h15.708" fill="#fab22a" originalFill="#fab22a"/>
    <path d="M339.608 96.14v15.508H323.9V96.14h15.708" fill="#fccc29" originalFill="#fccc29"/>
    <path d="M339.608 80.648V96.14H323.9V80.648h15.708" fill="#fab22a" originalFill="#fab22a"/>
    <path d="M339.608 64.941v15.707H323.9V64.941h15.708" fill="#fccc29" originalFill="#fccc29"/>
    <path d="M323.9 687.541v15.507h-15.493V687.54H323.9" fill="#353132" originalFill="#353132"/>
    <path d="M323.9 671.848v15.693h-15.493v-15.693H323.9m0-15.505v15.505h-15.493v-15.505H323.9" fill="#393536" originalFill="#393536"/>
    <path d="M323.9 562.941v15.707h-15.493v-15.707H323.9m0-15.493v15.493h-15.493v-15.493H323.9m0-15.507v15.507h-15.493v-15.507H323.9" fill="#f6866a" originalFill="#f6866a"/>
    <path d="M323.9 516.25v15.691h-15.493V516.25H323.9" fill="#c7391d" originalFill="#c7391d"/>
    <path d="M323.9 500.741v15.508h-15.493v-15.508H323.9" fill="#f14624" originalFill="#f14624"/>
    <path d="M323.9 485.25v15.491h-15.493V485.25H323.9m0-46.709v15.507h-15.493v-15.507H323.9" fill="#cd3b1e" originalFill="#cd3b1e"/>
    <path d="M323.9 422.848v15.693h-15.493v-15.693H323.9m0-15.505v15.505h-15.493v-15.505H323.9m0-15.495v15.495h-15.493v-15.495H323.9" fill="#f14624" originalFill="#f14624"/>
    <path d="M323.9 345.141v15.507h-15.493v-15.507H323.9" fill="#f89b77" originalFill="#f89b77"/>
    <path d="M323.9 329.648v15.493h-15.493v-15.493H323.9" fill="#f9a988" originalFill="#f9a988"/>
    <path d="M323.9 313.941v15.707h-15.493v-15.707H323.9m0-15.493v15.493h-15.493v-15.493H323.9m0-15.507v15.507h-15.493v-15.507H323.9m0-15.691v15.691h-15.493V267.25H323.9" fill="#fab790" originalFill="#fab790"/>
    <path d="M323.9 251.741v15.508h-15.493v-15.508H323.9m0-15.491v15.491h-15.493V236.25H323.9m0-15.709v15.708h-15.493v-15.708H323.9" fill="#f9a988" originalFill="#f9a988"/>
    <path d="M323.9 205.048v15.493h-15.493v-15.493H323.9" fill="#684027" originalFill="#684027"/>
    <path d="M323.9 189.541v15.507h-15.493v-15.507H323.9" fill="#f89a2c" originalFill="#f89a2c"/>
    <path d="M323.9 173.848v15.693h-15.493v-15.693H323.9" fill="#fccc29" originalFill="#fccc29"/>
    <path d="M323.9 158.343v15.505h-15.493v-15.505H323.9" fill="#f89a2c" originalFill="#f89a2c"/>
    <path d="M323.9 142.848v15.495h-15.493v-15.495H323.9m0-15.507v15.507h-15.493v-15.507H323.9M323.9 111.648v15.693h-15.493v-15.693H323.9m0-15.508v15.508h-15.493V96.14H323.9" fill="#fab22a" originalFill="#fab22a"/>
    <path d="M308.407 687.541v15.507H292.9V687.54h15.507" fill="#353132" originalFill="#353132"/>
    <path d="M308.407 671.848v15.693H292.9v-15.693h15.507" fill="#393536" originalFill="#393536"/>
    <path d="M308.407 547.448v15.493H292.9v-15.493h15.507m0-15.507v15.507H292.9v-15.507h15.507" fill="#fab790" originalFill="#fab790"/>
    <path d="M308.407 516.25v15.691H292.9V516.25h15.507" fill="#c7391d" originalFill="#c7391d"/>
    <path d="M308.407 500.741v15.508H292.9v-15.508h15.507m0-15.491v15.491H292.9V485.25h15.507" fill="#f14624" originalFill="#f14624"/>
    <path d="M308.407 469.555v15.694H292.9v-15.694h15.507m0-15.507v15.507H292.9v-15.507h15.507" fill="#cd3b1e" originalFill="#cd3b1e"/>
    <path d="M308.407 438.541v15.507H292.9v-15.507h15.507m0-15.693v15.693H292.9v-15.693h15.507m0-15.505v15.505H292.9v-15.505h15.507" fill="#f14624" originalFill="#f14624"/>
    <path d="M308.407 329.648v15.493H292.9v-15.493h15.507" fill="#f89b77" originalFill="#f89b77"/>
    <path d="M308.407 313.941v15.707H292.9v-15.707h15.507" fill="#f9a988" originalFill="#f9a988"/>
    <path d="M308.407 298.448v15.493H292.9v-15.493h15.507m0-15.507v15.507H292.9v-15.507h15.507m0-15.691v15.691H292.9V267.25h15.507m0-15.509v15.508H292.9v-15.508h15.507" fill="#fab790" originalFill="#fab790"/>
    <path d="M308.407 236.25v15.491H292.9V236.25h15.507" fill="#f9a988" originalFill="#f9a988"/>
    <path d="M308.407 220.541v15.708H292.9v-15.708h15.507" fill="#74482c" originalFill="#74482c"/>
    <path d="M308.407 205.048v15.493H292.9v-15.493h15.507" fill="#684027" originalFill="#684027"/>
    <path d="M308.407 189.541v15.507H292.9v-15.507h15.507" fill="#f89a2c" originalFill="#f89a2c"/>
    <path d="M308.407 173.848v15.693H292.9v-15.693h15.507" fill="#fccc29" originalFill="#fccc29"/>
    <path d="M308.407 158.343v15.505H292.9v-15.505h15.507" fill="#f89a2c" originalFill="#f89a2c"/>
    <path d="M308.407 142.848v15.495H292.9v-15.495h15.507m0-15.507v15.507H292.9v-15.507h15.507M308.407 111.648v15.693H292.9v-15.693h15.507m0-15.508v15.508H292.9V96.14h15.507" fill="#fab22a" originalFill="#fab22a"/>
    <path d="M292.9 547.448v15.493h-15.693v-15.493H292.9m0-15.507v15.507h-15.693v-15.507H292.9" fill="#fab790" originalFill="#fab790"/>
    <path d="M292.9 485.25v15.491h-15.693V485.25H292.9m0-15.695v15.694h-15.693v-15.694H292.9m0-15.507v15.507h-15.693v-15.507H292.9m0-15.507v15.507h-15.693v-15.507H292.9m0-15.693v15.693h-15.693v-15.693H292.9" fill="#f14624" originalFill="#f14624"/>
    <path d="M292.9 313.941v15.707h-15.693v-15.707H292.9m0-15.493v15.493h-15.693v-15.493H292.9" fill="#f89b77" originalFill="#f89b77"/>
    <path d="M292.9 282.941v15.507h-15.693v-15.507H292.9" fill="#fab790" originalFill="#fab790"/>
    <path d="M292.9 267.25v15.691h-15.693V267.25H292.9m0-15.509v15.508h-15.693v-15.508H292.9m0-15.491v15.491h-15.693V236.25H292.9m0-15.709v15.708h-15.693v-15.708H292.9" fill="#845333" originalFill="#845333"/>
    <path d="M292.9 205.048v15.493h-15.693v-15.493H292.9" fill="#684027" originalFill="#684027"/>
    <path d="M292.9 189.541v15.507h-15.693v-15.507H292.9" fill="#f89a2c" originalFill="#f89a2c"/>
    <path d="M292.9 173.848v15.693h-15.693v-15.693H292.9" fill="#fccc29" originalFill="#fccc29"/>
    <path d="M292.9 158.343v15.505h-15.693v-15.505H292.9" fill="#f89a2c" originalFill="#f89a2c"/>
    <path d="M292.9 142.848v15.495h-15.693v-15.495H292.9m0-15.507v15.507h-15.693v-15.507H292.9" fill="#fab22a" originalFill="#fab22a"/>
    <path d="M277.207 469.555v15.694H261.7v-15.694h15.507m0-15.507v15.507H261.7v-15.507h15.507" fill="#f14624" originalFill="#f14624"/>
    <path d="M277.207 298.448v15.493H261.7v-15.493h15.507" fill="#f9a988" originalFill="#f9a988"/>
    <path d="M277.207 282.941v15.507H261.7v-15.507h15.507m0-15.691v15.691H261.7V267.25h15.507" fill="#fab790" originalFill="#fab790"/>
    <path d="M277.207 251.741v15.508H261.7v-15.508h15.507m0-15.491v15.491H261.7V236.25h15.507m0-15.709v15.708H261.7v-15.708h15.507" fill="#845333" originalFill="#845333"/>
    <path d="M277.207 205.048v15.493H261.7v-15.493h15.507" fill="#684027" originalFill="#684027"/>
    <path d="M277.207 189.541v15.507H261.7v-15.507h15.507" fill="#f89a2c" originalFill="#f89a2c"/>
    <path d="M277.207 173.848v15.693H261.7v-15.693h15.507" fill="#fccc29" originalFill="#fccc29"/>
    <path d="M277.207 158.343v15.505H261.7v-15.505h15.507M261.7 189.541v15.507h-15.493v-15.507H261.7" fill="#f89a2c" originalFill="#f89a2c"/>
    <path d="M261.7 173.848v15.693h-15.493v-15.693H261.7" fill="#fccc29" originalFill="#fccc29"/>
</svg>